<mxfile host="app.diagrams.net" agent="Mozilla/5.0 (Windows NT 10.0; Win64; x64) AppleWebKit/537.36 (KHTML, like Gecko) Chrome/134.0.0.0 Safari/537.36" version="26.1.1">
  <diagram id="C5RBs43oDa-KdzZeNtuy" name="Page-1">
    <mxGraphModel dx="1909" dy="949" grid="1" gridSize="10" guides="1" tooltips="1" connect="1" arrows="1" fold="1" page="1" pageScale="1" pageWidth="827" pageHeight="1169" math="0" shadow="0">
      <root>
        <mxCell id="WIyWlLk6GJQsqaUBKTNV-0" />
        <mxCell id="WIyWlLk6GJQsqaUBKTNV-1" parent="WIyWlLk6GJQsqaUBKTNV-0" />
        <mxCell id="yvIgj3DMFBaeKVkKqo_X-0" value="" style="rounded=0;whiteSpace=wrap;html=1;" vertex="1" parent="WIyWlLk6GJQsqaUBKTNV-1">
          <mxGeometry x="80" y="20" width="680" height="960" as="geometry" />
        </mxCell>
        <mxCell id="title" value="EchoMotionAI System Architecture" style="text;html=1;strokeColor=none;fillColor=none;align=center;verticalAlign=middle;whiteSpace=wrap;rounded=0;fontSize=24;fontStyle=1" parent="WIyWlLk6GJQsqaUBKTNV-1" vertex="1">
          <mxGeometry x="184" y="30" width="460" height="40" as="geometry" />
        </mxCell>
        <mxCell id="inputSection" value="Input Processing" style="swimlane;fontStyle=1;align=center;verticalAlign=top;childLayout=stackLayout;horizontal=1;startSize=26;horizontalStack=0;resizeParent=1;resizeParentMax=0;resizeLast=0;collapsible=0;marginBottom=0;fontSize=14;fillColor=#dae8fc;strokeColor=#6c8ebf;" parent="WIyWlLk6GJQsqaUBKTNV-1" vertex="1">
          <mxGeometry x="120" y="100" width="200" height="150" as="geometry" />
        </mxCell>
        <mxCell id="audioInput" value="Audio Input" style="rounded=1;whiteSpace=wrap;html=1;fontSize=12;glass=0;strokeWidth=1;shadow=0;fillColor=#f5f5f5;fontColor=#333333;strokeColor=#666666;" parent="inputSection" vertex="1">
          <mxGeometry y="36" width="200" height="30" as="geometry" />
        </mxCell>
        <mxCell id="speechToText" value="Azure Speech-to-Text" style="rounded=1;whiteSpace=wrap;html=1;fontSize=12;glass=0;strokeWidth=1;shadow=0;fillColor=#f5f5f5;fontColor=#333333;strokeColor=#666666;" parent="inputSection" vertex="1">
          <mxGeometry y="76" width="200" height="30" as="geometry" />
        </mxCell>
        <mxCell id="nlpProcessing" value="NLP Processing (OpenAI)" style="rounded=1;whiteSpace=wrap;html=1;fontSize=12;glass=0;strokeWidth=1;shadow=0;fillColor=#f5f5f5;fontColor=#333333;strokeColor=#666666;" parent="inputSection" vertex="1">
          <mxGeometry y="116" width="200" height="30" as="geometry" />
        </mxCell>
        <mxCell id="coreSystem" value="Core System" style="swimlane;fontStyle=1;align=center;verticalAlign=top;childLayout=stackLayout;horizontal=1;startSize=26;horizontalStack=0;resizeParent=1;resizeParentMax=0;resizeLast=0;collapsible=0;marginBottom=0;fontSize=14;fillColor=#d5e8d4;strokeColor=#82b366;" parent="WIyWlLk6GJQsqaUBKTNV-1" vertex="1">
          <mxGeometry x="120" y="300" width="600" height="220" as="geometry" />
        </mxCell>
        <mxCell id="sceneGraph" value="Scene Graph Module" style="swimlane;fontStyle=1;align=center;verticalAlign=top;childLayout=stackLayout;horizontal=1;startSize=26;horizontalStack=0;resizeParent=1;resizeParentMax=0;resizeLast=0;collapsible=0;marginBottom=0;fontSize=12;fillColor=#e1d5e7;strokeColor=#9673a6;" parent="coreSystem" vertex="1">
          <mxGeometry x="20" y="40" width="170" height="160" as="geometry" />
        </mxCell>
        <mxCell id="sceneGraphComp1" value="Scene Graph Builder" style="rounded=1;whiteSpace=wrap;html=1;fontSize=12;glass=0;strokeWidth=1;shadow=0;" parent="sceneGraph" vertex="1">
          <mxGeometry y="36" width="170" height="30" as="geometry" />
        </mxCell>
        <mxCell id="sceneGraphComp2" value="Relationship Analyzer" style="rounded=1;whiteSpace=wrap;html=1;fontSize=12;glass=0;strokeWidth=1;shadow=0;" parent="sceneGraph" vertex="1">
          <mxGeometry y="76" width="170" height="30" as="geometry" />
        </mxCell>
        <mxCell id="sceneGraphComp3" value="Multi-Agent ChatGPT System" style="rounded=1;whiteSpace=wrap;html=1;fontSize=12;glass=0;strokeWidth=1;shadow=0;fillColor=#f8cecc;strokeColor=#b85450;" parent="sceneGraph" vertex="1">
          <mxGeometry y="116" width="170" height="30" as="geometry" />
        </mxCell>
        <mxCell id="networkModule" value="Neural Network Module" style="swimlane;fontStyle=1;align=center;verticalAlign=top;childLayout=stackLayout;horizontal=1;startSize=26;horizontalStack=0;resizeParent=1;resizeParentMax=0;resizeLast=0;collapsible=0;marginBottom=0;fontSize=12;fillColor=#e1d5e7;strokeColor=#9673a6;" parent="coreSystem" vertex="1">
          <mxGeometry x="220" y="40" width="170" height="160" as="geometry" />
        </mxCell>
        <mxCell id="networkComp1" value="Diffuser Network" style="rounded=1;whiteSpace=wrap;html=1;fontSize=12;glass=0;strokeWidth=1;shadow=0;" parent="networkModule" vertex="1">
          <mxGeometry y="36" width="170" height="30" as="geometry" />
        </mxCell>
        <mxCell id="networkComp2" value="SMPL-X Integration" style="rounded=1;whiteSpace=wrap;html=1;fontSize=12;glass=0;strokeWidth=1;shadow=0;" parent="networkModule" vertex="1">
          <mxGeometry y="76" width="170" height="30" as="geometry" />
        </mxCell>
        <mxCell id="networkComp3" value="Motion Synthesis" style="rounded=1;whiteSpace=wrap;html=1;fontSize=12;glass=0;strokeWidth=1;shadow=0;" parent="networkModule" vertex="1">
          <mxGeometry y="116" width="170" height="30" as="geometry" />
        </mxCell>
        <mxCell id="dataModule" value="Data Management" style="swimlane;fontStyle=1;align=center;verticalAlign=top;childLayout=stackLayout;horizontal=1;startSize=26;horizontalStack=0;resizeParent=1;resizeParentMax=0;resizeLast=0;collapsible=0;marginBottom=0;fontSize=12;fillColor=#e1d5e7;strokeColor=#9673a6;" parent="coreSystem" vertex="1">
          <mxGeometry x="410" y="40" width="170" height="160" as="geometry" />
        </mxCell>
        <mxCell id="dataComp1" value="Dataset Factory" style="rounded=1;whiteSpace=wrap;html=1;fontSize=12;glass=0;strokeWidth=1;shadow=0;" parent="dataModule" vertex="1">
          <mxGeometry y="36" width="170" height="30" as="geometry" />
        </mxCell>
        <mxCell id="dataComp2" value="Data Loaders" style="rounded=1;whiteSpace=wrap;html=1;fontSize=12;glass=0;strokeWidth=1;shadow=0;" parent="dataModule" vertex="1">
          <mxGeometry y="76" width="170" height="30" as="geometry" />
        </mxCell>
        <mxCell id="dataComp3" value="ScanNet Integration" style="rounded=1;whiteSpace=wrap;html=1;fontSize=12;glass=0;strokeWidth=1;shadow=0;" parent="dataModule" vertex="1">
          <mxGeometry y="116" width="170" height="30" as="geometry" />
        </mxCell>
        <mxCell id="configSection" value="Configuration &amp; Utilities" style="swimlane;fontStyle=1;align=center;verticalAlign=top;childLayout=stackLayout;horizontal=1;startSize=26;horizontalStack=0;resizeParent=1;resizeParentMax=0;resizeLast=0;collapsible=0;marginBottom=0;fontSize=14;fillColor=#fff2cc;strokeColor=#d6b656;" parent="WIyWlLk6GJQsqaUBKTNV-1" vertex="1">
          <mxGeometry x="120" y="550" width="600" height="110" as="geometry" />
        </mxCell>
        <mxCell id="configComp1" value="Config Manager" style="rounded=1;whiteSpace=wrap;html=1;fontSize=12;glass=0;strokeWidth=1;shadow=0;" parent="configSection" vertex="1">
          <mxGeometry x="20" y="40" width="170" height="50" as="geometry" />
        </mxCell>
        <mxCell id="utilsComp1" value="Geometry Utilities" style="rounded=1;whiteSpace=wrap;html=1;fontSize=12;glass=0;strokeWidth=1;shadow=0;" parent="configSection" vertex="1">
          <mxGeometry x="220" y="40" width="170" height="50" as="geometry" />
        </mxCell>
        <mxCell id="registryComp" value="Registry System" style="rounded=1;whiteSpace=wrap;html=1;fontSize=12;glass=0;strokeWidth=1;shadow=0;" parent="configSection" vertex="1">
          <mxGeometry x="410" y="40" width="170" height="50" as="geometry" />
        </mxCell>
        <mxCell id="externalAISection" value="External AI Integration" style="swimlane;fontStyle=1;align=center;verticalAlign=top;childLayout=stackLayout;horizontal=1;startSize=26;horizontalStack=0;resizeParent=1;resizeParentMax=0;resizeLast=0;collapsible=0;marginBottom=0;fontSize=14;fillColor=#e3c800;strokeColor=#B09500;fontColor=#000000;" parent="WIyWlLk6GJQsqaUBKTNV-1" vertex="1">
          <mxGeometry x="120" y="690" width="600" height="110" as="geometry" />
        </mxCell>
        <mxCell id="customLLM" value="Custom LLM for RLHF" style="rounded=1;whiteSpace=wrap;html=1;fontSize=12;glass=0;strokeWidth=1;shadow=0;fillColor=#fff2cc;strokeColor=#d6b656;" parent="externalAISection" vertex="1">
          <mxGeometry x="20" y="40" width="270" height="50" as="geometry" />
        </mxCell>
        <mxCell id="memorySystem" value="Agent Memory System" style="rounded=1;whiteSpace=wrap;html=1;fontSize=12;glass=0;strokeWidth=1;shadow=0;fillColor=#fff2cc;strokeColor=#d6b656;" parent="externalAISection" vertex="1">
          <mxGeometry x="310" y="40" width="270" height="50" as="geometry" />
        </mxCell>
        <mxCell id="visSection" value="Visualization &amp; Output" style="swimlane;fontStyle=1;align=center;verticalAlign=top;childLayout=stackLayout;horizontal=1;startSize=26;horizontalStack=0;resizeParent=1;resizeParentMax=0;resizeLast=0;collapsible=0;marginBottom=0;fontSize=14;fillColor=#f8cecc;strokeColor=#b85450;" parent="WIyWlLk6GJQsqaUBKTNV-1" vertex="1">
          <mxGeometry x="430" y="100" width="290" height="150" as="geometry" />
        </mxCell>
        <mxCell id="visComp1" value="Wis3D Visualization Server" style="rounded=1;whiteSpace=wrap;html=1;fontSize=12;glass=0;strokeWidth=1;shadow=0;fillColor=#f5f5f5;fontColor=#333333;strokeColor=#666666;" parent="visSection" vertex="1">
          <mxGeometry y="36" width="290" height="30" as="geometry" />
        </mxCell>
        <mxCell id="visComp2" value="Result Visualization Pipeline" style="rounded=1;whiteSpace=wrap;html=1;fontSize=12;glass=0;strokeWidth=1;shadow=0;fillColor=#f5f5f5;fontColor=#333333;strokeColor=#666666;" parent="visSection" vertex="1">
          <mxGeometry y="76" width="290" height="30" as="geometry" />
        </mxCell>
        <mxCell id="visComp3" value="Motion Rendering" style="rounded=1;whiteSpace=wrap;html=1;fontSize=12;glass=0;strokeWidth=1;shadow=0;fillColor=#f5f5f5;fontColor=#333333;strokeColor=#666666;" parent="visSection" vertex="1">
          <mxGeometry y="116" width="290" height="30" as="geometry" />
        </mxCell>
        <mxCell id="inputToCoreFlow" style="edgeStyle=orthogonalEdgeStyle;rounded=0;orthogonalLoop=1;jettySize=auto;html=1;exitX=0.5;exitY=1;exitDx=0;exitDy=0;entryX=0.5;entryY=0;entryDx=0;entryDy=0;startArrow=none;startFill=0;endArrow=classic;endFill=1;" parent="WIyWlLk6GJQsqaUBKTNV-1" source="inputSection" target="coreSystem" edge="1">
          <mxGeometry relative="1" as="geometry" />
        </mxCell>
        <mxCell id="coreToVisFlow" style="edgeStyle=orthogonalEdgeStyle;rounded=0;orthogonalLoop=1;jettySize=auto;html=1;exitX=1;exitY=0.25;exitDx=0;exitDy=0;entryX=0.5;entryY=1;entryDx=0;entryDy=0;startArrow=none;startFill=0;endArrow=classic;endFill=1;" parent="WIyWlLk6GJQsqaUBKTNV-1" source="coreSystem" target="visSection" edge="1">
          <mxGeometry relative="1" as="geometry">
            <Array as="points">
              <mxPoint x="740" y="355" />
              <mxPoint x="740" y="270" />
              <mxPoint x="575" y="270" />
            </Array>
          </mxGeometry>
        </mxCell>
        <mxCell id="configToCoreFlow" style="edgeStyle=orthogonalEdgeStyle;rounded=0;orthogonalLoop=1;jettySize=auto;html=1;exitX=0.5;exitY=0;exitDx=0;exitDy=0;entryX=0.5;entryY=1;entryDx=0;entryDy=0;startArrow=none;startFill=0;endArrow=classic;endFill=1;" parent="WIyWlLk6GJQsqaUBKTNV-1" source="configSection" target="coreSystem" edge="1">
          <mxGeometry relative="1" as="geometry" />
        </mxCell>
        <mxCell id="externalAIToCoreFlow" style="edgeStyle=orthogonalEdgeStyle;rounded=0;orthogonalLoop=1;jettySize=auto;html=1;exitX=0.5;exitY=0;exitDx=0;exitDy=0;entryX=0.5;entryY=1;entryDx=0;entryDy=0;startArrow=none;startFill=0;endArrow=classic;endFill=1;strokeColor=#B09500;strokeWidth=2;" parent="WIyWlLk6GJQsqaUBKTNV-1" source="externalAISection" target="configSection" edge="1">
          <mxGeometry relative="1" as="geometry" />
        </mxCell>
        <mxCell id="memoryToChatGPTFlow" style="edgeStyle=orthogonalEdgeStyle;rounded=0;orthogonalLoop=1;jettySize=auto;html=1;exitX=0.25;exitY=0;exitDx=0;exitDy=0;entryX=0;entryY=0.5;entryDx=0;entryDy=0;startArrow=none;startFill=0;endArrow=classic;endFill=1;strokeColor=#B09500;strokeWidth=2;dashed=1;" parent="WIyWlLk6GJQsqaUBKTNV-1" source="memorySystem" target="sceneGraphComp3" edge="1">
          <mxGeometry relative="1" as="geometry">
            <Array as="points">
              <mxPoint x="377" y="670" />
              <mxPoint x="100" y="670" />
              <mxPoint x="100" y="416" />
            </Array>
          </mxGeometry>
        </mxCell>
        <mxCell id="legend" value="Legend" style="swimlane;fontStyle=1;align=center;verticalAlign=top;childLayout=stackLayout;horizontal=1;startSize=26;horizontalStack=0;resizeParent=1;resizeParentMax=0;resizeLast=0;collapsible=0;marginBottom=0;fontSize=12;" parent="WIyWlLk6GJQsqaUBKTNV-1" vertex="1">
          <mxGeometry x="120" y="820" width="600" height="130" as="geometry" />
        </mxCell>
        <mxCell id="legendInput" value="" style="rounded=0;whiteSpace=wrap;html=1;fontSize=12;glass=0;strokeWidth=1;shadow=0;fillColor=#dae8fc;strokeColor=#6c8ebf;" parent="legend" vertex="1">
          <mxGeometry x="20" y="40" width="20" height="20" as="geometry" />
        </mxCell>
        <mxCell id="legendInputText" value="Input Processing" style="text;html=1;align=left;verticalAlign=middle;resizable=0;points=[];autosize=1;strokeColor=none;fillColor=none;fontSize=12;" parent="legend" vertex="1">
          <mxGeometry x="50" y="35" width="120" height="30" as="geometry" />
        </mxCell>
        <mxCell id="legendCore" value="" style="rounded=0;whiteSpace=wrap;html=1;fontSize=12;glass=0;strokeWidth=1;shadow=0;fillColor=#d5e8d4;strokeColor=#82b366;" parent="legend" vertex="1">
          <mxGeometry x="20" y="70" width="20" height="20" as="geometry" />
        </mxCell>
        <mxCell id="legendCoreText" value="Core System" style="text;html=1;align=left;verticalAlign=middle;resizable=0;points=[];autosize=1;strokeColor=none;fillColor=none;fontSize=12;" parent="legend" vertex="1">
          <mxGeometry x="50" y="65" width="90" height="30" as="geometry" />
        </mxCell>
        <mxCell id="legendConfig" value="" style="rounded=0;whiteSpace=wrap;html=1;fontSize=12;glass=0;strokeWidth=1;shadow=0;fillColor=#fff2cc;strokeColor=#d6b656;" parent="legend" vertex="1">
          <mxGeometry x="200" y="40" width="20" height="20" as="geometry" />
        </mxCell>
        <mxCell id="legendConfigText" value="Configuration &amp; Utilities" style="text;html=1;align=left;verticalAlign=middle;resizable=0;points=[];autosize=1;strokeColor=none;fillColor=none;fontSize=12;" parent="legend" vertex="1">
          <mxGeometry x="230" y="35" width="150" height="30" as="geometry" />
        </mxCell>
        <mxCell id="legendVis" value="" style="rounded=0;whiteSpace=wrap;html=1;fontSize=12;glass=0;strokeWidth=1;shadow=0;fillColor=#f8cecc;strokeColor=#b85450;" parent="legend" vertex="1">
          <mxGeometry x="200" y="70" width="20" height="20" as="geometry" />
        </mxCell>
        <mxCell id="legendVisText" value="Visualization &amp; Output" style="text;html=1;align=left;verticalAlign=middle;resizable=0;points=[];autosize=1;strokeColor=none;fillColor=none;fontSize=12;" parent="legend" vertex="1">
          <mxGeometry x="230" y="65" width="140" height="30" as="geometry" />
        </mxCell>
        <mxCell id="legendDataFlow" value="" style="endArrow=classic;html=1;rounded=0;" parent="legend" edge="1">
          <mxGeometry width="50" height="50" relative="1" as="geometry">
            <mxPoint x="390" y="50" as="sourcePoint" />
            <mxPoint x="450" y="50" as="targetPoint" />
          </mxGeometry>
        </mxCell>
        <mxCell id="legendDataFlowText" value="Data Flow" style="text;html=1;align=left;verticalAlign=middle;resizable=0;points=[];autosize=1;strokeColor=none;fillColor=none;fontSize=12;" parent="legend" vertex="1">
          <mxGeometry x="460" y="35" width="80" height="30" as="geometry" />
        </mxCell>
        <mxCell id="legendModule" value="" style="rounded=0;whiteSpace=wrap;html=1;fontSize=12;glass=0;strokeWidth=1;shadow=0;fillColor=#e1d5e7;strokeColor=#9673a6;" parent="legend" vertex="1">
          <mxGeometry x="390" y="100" width="20" height="20" as="geometry" />
        </mxCell>
        <mxCell id="legendModuleText" value="System Module" style="text;html=1;align=left;verticalAlign=middle;resizable=0;points=[];autosize=1;strokeColor=none;fillColor=none;fontSize=12;" parent="legend" vertex="1">
          <mxGeometry x="420" y="95" width="110" height="30" as="geometry" />
        </mxCell>
        <mxCell id="legendExternalAI" value="" style="rounded=0;whiteSpace=wrap;html=1;fontSize=12;glass=0;strokeWidth=1;shadow=0;fillColor=#e3c800;strokeColor=#B09500;" parent="legend" vertex="1">
          <mxGeometry x="390" y="130" width="20" height="20" as="geometry" />
        </mxCell>
        <mxCell id="legendExternalAIText" value="External AI Integration" style="text;html=1;align=left;verticalAlign=middle;resizable=0;points=[];autosize=1;strokeColor=none;fillColor=none;fontSize=12;" parent="legend" vertex="1">
          <mxGeometry x="420" y="125" width="140" height="30" as="geometry" />
        </mxCell>
      </root>
    </mxGraphModel>
  </diagram>
</mxfile>
